<?xml version="1.0" encoding="iso-8859-1"?>
<!-- Uploaded to: SVG Repo, www.svgrepo.com, Generator: SVG Repo Mixer Tools -->
<svg version="1.1" id="Layer_1" xmlns="http://www.w3.org/2000/svg" xmlns:xlink="http://www.w3.org/1999/xlink" 
	 viewBox="0 0 508.609 508.609" xml:space="preserve">
<circle style="fill:#8A6753;" cx="254.305" cy="129.526" r="129.526"/>
<path style="fill:#1B9ED6;" d="M427.232,332.291l-172.927-41.706L81.378,332.291c-32.89,7.799-56.286,40.35-56.286,77.648v98.67
	h458.426v-98.67C483.518,372.641,460.122,340.429,427.232,332.291z"/>
<path style="fill:#EEB490;" d="M198.019,246.845v49.844c0,31.195,25.091,56.286,56.286,56.286l0,0
	c31.195,0,56.286-25.091,56.286-56.286v-49.844H198.019z"/>
<path style="fill:#FACCB4;" d="M279.057,79.682c-23.396,35.264-86.125,42.723-121.049,44.079c0,1.695,0,3.052,0,4.747v70.527
	c0,53.234,43.062,96.297,96.297,96.297s96.297-43.062,96.297-96.297v-70.527c0-3.052,0-5.764-0.339-8.816
	C308.217,108.164,279.057,79.682,279.057,79.682z"/>
<path style="fill:#56545F;" d="M311.608,205.139H197.001c-21.701,0-38.993-17.632-38.993-38.993v-37.298h192.593v37.298
	C350.601,187.507,332.97,205.139,311.608,205.139z"/>
<g>
	<rect x="124.779" y="128.509" style="fill:#1B9ED6;" width="33.229" height="38.315"/>
	<rect x="350.601" y="128.509" style="fill:#1B9ED6;" width="33.229" height="38.315"/>
</g>
</svg>